HIERARCHY
ROOT SpineBase
{
  OFFSET 0.000000 0.000000 0.000000
  CHANNELS 6 Xposition Yposition Zposition Zrotation Xrotation Yrotation
  JOINT SpineMid
  {
    OFFSET 0.000000 31.295779 0.000000
    CHANNELS 3 Zrotation Xrotation Yrotation
    JOINT SpineShoulder
    {
      OFFSET -0.060932 23.384482 -0.931861
      CHANNELS 3 Zrotation Xrotation Yrotation
      JOINT Neck
      {
        OFFSET 0.027067 7.777888 -0.639579
        CHANNELS 3 Zrotation Xrotation Yrotation
        JOINT Head
        {
          OFFSET -1.961146 12.429803 1.173810
          CHANNELS 3 Zrotation Xrotation Yrotation
          End Site
          {
            OFFSET 0 0 0
          }
        }
      }
      JOINT ShoulderLeft
      {
        OFFSET -13.770220 -4.121409 2.614412
        CHANNELS 3 Zrotation Xrotation Yrotation
        JOINT ElbowLeft
        {
          OFFSET -2.981763 -16.369003 8.172394
          CHANNELS 3 Zrotation Xrotation Yrotation
          JOINT WristLeft
          {
            OFFSET -1.615571 -18.434231 4.537398
            CHANNELS 3 Zrotation Xrotation Yrotation
            JOINT HandLeft
            {
              OFFSET -1.702929 -17.739141 2.407568
              CHANNELS 3 Zrotation Xrotation Yrotation
              JOINT HandTipLeft
              {
                OFFSET -0.062238 -2.843268 -0.317364
                CHANNELS 3 Zrotation Xrotation Yrotation
                End Site
                {
                  OFFSET 0 0 0
                }
              }
              JOINT ThumbLeft
              {
                OFFSET 1.001261 1.445157 -2.958772
                CHANNELS 3 Zrotation Xrotation Yrotation
                End Site
                {
                  OFFSET 0 0 0
                }
              }
            }
          }
        }
      }
      JOINT ShoulderRight
      {
        OFFSET 13.757422 -3.838203 -8.049292
        CHANNELS 3 Zrotation Xrotation Yrotation
        JOINT ElbowRight
        {
          OFFSET 8.241235 -17.439099 0.781237
          CHANNELS 3 Zrotation Xrotation Yrotation
          JOINT WristRight
          {
            OFFSET 1.451341 14.076838 13.187404
            CHANNELS 3 Zrotation Xrotation Yrotation
            JOINT HandRight
            {
              OFFSET 0.467145 4.546107 4.741453
              CHANNELS 3 Zrotation Xrotation Yrotation
              JOINT HandTipRight
              {
                OFFSET 0.684938 2.068866 0.159161
                CHANNELS 3 Zrotation Xrotation Yrotation
                End Site
                {
                  OFFSET 0 0 0
                }
              }
              JOINT ThumbRight
              {
                OFFSET 1.119527 2.646500 -1.578880
                CHANNELS 3 Zrotation Xrotation Yrotation
                End Site
                {
                  OFFSET 0 0 0
                }
              }
            }
          }
        }
      }
    }
  }
  JOINT HipLeft
  {
    OFFSET -5.738228 1.007524 -1.225417
    CHANNELS 3 Zrotation Xrotation Yrotation
    JOINT KneeLeft
    {
      OFFSET -5.260768 -27.674435 0.883491
      CHANNELS 3 Zrotation Xrotation Yrotation
      JOINT AnkleLeft
      {
        OFFSET -1.794226 -31.333863 0.147596
        CHANNELS 3 Zrotation Xrotation Yrotation
        JOINT FootLeft
        {
          OFFSET -2.687908 -2.338068 -11.058664
          CHANNELS 3 Zrotation Xrotation Yrotation
          End Site
          {
            OFFSET 0 0 0
          }
        }
      }
    }
  }
  JOINT HipRight
  {
    OFFSET 6.524360 2.295592 -4.978463
    CHANNELS 3 Zrotation Xrotation Yrotation
    JOINT KneeRight
    {
      OFFSET 2.643269 -28.304541 -5.177138
      CHANNELS 3 Zrotation Xrotation Yrotation
      JOINT AnkleRight
      {
        OFFSET -3.289128 -31.129649 -3.830250
        CHANNELS 3 Zrotation Xrotation Yrotation
        JOINT FootRight
        {
          OFFSET -2.479468 -2.525627 -10.188122
          CHANNELS 3 Zrotation Xrotation Yrotation
          End Site
          {
            OFFSET 0 0 0
          }
        }
      }
    }
  }
}
MOTION
Frames: 16
Frame Time: 0.033333
-32.355077 65.546952 228.849459 -0.000000 0.000000 17.017075 -0.000000 0.000000 -17.017075 -0.000000 0.000000 0.000000 -0.000000 0.000000 0.000000 0.000000 0.000000 0.000000 -0.000000 0.000000 0.000000 -0.000000 0.000000 0.000000 -0.000000 0.000000 0.000000 -0.000000 0.000000 0.000000 0.000000 0.000000 0.000000 0.000000 0.000000 0.000000 -0.000000 0.000000 0.000000 -0.000000 0.000000 0.000000 -0.000000 0.000000 0.000000 -0.000000 0.000000 0.000000 0.000000 0.000000 0.000000 0.000000 0.000000 0.000000 -0.000000 0.000000 -17.017075 -0.000000 0.000000 0.000000 -0.000000 0.000000 0.000000 0.000000 0.000000 0.000000 -0.000000 0.000000 -17.017075 -0.000000 0.000000 0.000000 -0.000000 0.000000 0.000000 0.000000 0.000000 0.000000
-32.408110 65.323329 228.651760 0.070436 0.111250 17.114250 -0.100055 -0.085596 -17.114393 -0.000000 0.000000 0.000000 -0.000000 0.000000 0.000000 0.000000 0.000000 0.000000 1.197861 1.863762 0.241471 -1.206338 -1.858287 -0.280521 0.235209 -0.792536 0.109552 -0.233716 0.792977 -0.106307 0.000000 0.000000 0.000000 0.000000 0.000000 0.000000 -1.449133 0.048190 -0.041790 1.133117 1.288241 0.202074 0.028397 -0.022287 0.006541 -1.508677 -1.967118 0.144045 0.000000 0.000000 0.000000 0.000000 0.000000 0.000000 -0.100055 -0.085596 -17.114393 -0.000000 0.000000 0.000000 -0.000000 0.000000 0.000000 0.000000 0.000000 0.000000 -0.100055 -0.085596 -17.114393 -0.000000 0.000000 0.000000 0.500329 -1.445743 -0.627184 0.000000 0.000000 0.000000
-32.448773 65.132189 228.483345 0.131791 0.214618 17.240017 -0.189478 -0.165916 -17.240538 -0.000000 0.000000 0.000000 -0.000000 0.000000 0.000000 0.000000 0.000000 0.000000 2.177543 3.533796 0.383425 -2.205282 -3.516566 -0.518311 0.401886 -1.227704 0.176515 -0.398194 1.228907 -0.167939 0.000000 0.000000 0.000000 0.000000 0.000000 0.000000 -2.730131 0.371412 0.062758 2.220668 1.900427 0.201282 0.047696 -0.039164 0.009286 -2.852354 -3.437804 0.248735 0.000000 0.000000 0.000000 0.000000 0.000000 0.000000 -0.189478 -0.165916 -17.240538 -0.000000 0.000000 0.000000 -0.000000 0.000000 0.000000 0.000000 0.000000 0.000000 -0.189478 -0.165916 -17.240538 0.110015 -0.853678 0.077563 0.744188 -1.659834 -1.162375 0.000000 0.000000 0.000000
-32.477064 64.973534 228.344215 0.184091 0.310125 17.394551 -0.268386 -0.240906 -17.395614 -0.000000 0.000000 0.000000 -0.000000 0.000000 0.000000 0.000000 0.000000 0.000000 2.942732 5.005282 0.440191 -2.203496 -4.389866 -0.494539 -0.262036 -1.990379 0.072337 -0.517145 1.397809 -0.198315 0.000000 0.000000 0.000000 0.000000 0.000000 0.000000 -3.844953 0.965120 0.321403 3.268427 1.832080 -0.000531 0.057586 -0.048638 0.008135 -4.024858 -4.414068 0.362139 0.000000 0.000000 0.000000 0.000000 0.000000 0.000000 -0.000586 -1.216219 -17.212912 -0.544471 0.852356 -0.175247 -0.000000 0.000000 0.000000 0.000000 0.000000 0.000000 -0.268386 -0.240906 -17.395614 0.206618 -1.206422 0.104382 0.840316 -1.907693 -1.433288 0.000000 0.000000 0.000000
-32.492984 64.847362 228.234370 0.227361 0.397790 17.578053 -0.336884 -0.310548 -17.579755 -0.000000 0.000000 0.000000 -0.000000 0.000000 0.000000 0.000000 0.000000 0.000000 3.496869 6.276875 0.424022 -2.596109 -5.307499 -0.561027 -0.348422 -2.278846 0.068016 -0.603453 1.337852 -0.203513 0.000000 0.000000 0.000000 0.000000 0.000000 0.000000 -4.797930 1.825834 0.739505 4.273009 1.079163 -0.397270 0.057918 -0.049655 0.002989 -5.021643 -4.899721 0.521838 0.000000 0.000000 0.000000 0.000000 0.000000 0.000000 -0.018440 -1.501861 -17.355747 -0.659404 1.042036 -0.212975 -0.000000 0.000000 0.000000 0.000000 0.000000 0.000000 -0.336884 -0.310548 -17.579755 0.330712 -1.510055 0.123465 0.737799 -1.685260 -1.466450 0.000000 0.000000 0.000000
-32.496532 64.753674 228.153809 0.261627 0.477636 17.790746 -0.395061 -0.374850 -17.793129 -0.000000 0.000000 0.000000 -0.734035 0.344804 0.126022 0.000000 0.000000 0.000000 3.842793 7.349514 0.344926 -2.814757 -5.955996 -0.568670 -0.416671 -2.417538 0.054353 -0.664075 1.052644 -0.185212 0.000000 0.000000 0.000000 0.000000 0.000000 0.000000 -5.595420 2.950972 1.320187 5.222222 -0.362408 -0.978943 0.048679 -0.042051 -0.006259 -5.841164 -4.897928 0.754599 0.000000 0.000000 0.000000 0.000000 0.000000 0.000000 -0.045232 -1.727785 -17.538071 -0.741383 1.184566 -0.240975 -0.000000 0.000000 0.000000 0.000000 0.000000 0.000000 -0.395061 -0.374850 -17.793129 0.482157 -1.764796 0.134897 0.435652 -0.984528 -1.257369 0.000000 0.000000 0.000000
-32.454815 64.727865 228.122760 0.279640 0.556872 18.138353 -0.439117 -0.442134 -18.141406 -0.000000 0.000000 0.000000 -0.833111 0.593309 0.176718 0.000000 0.000000 0.000000 3.963962 8.474436 0.145835 -2.782892 -6.241473 -0.473473 -1.215438 -2.213898 -0.127888 -0.000000 0.000000 0.000000 0.000000 0.000000 0.000000 0.000000 0.000000 0.000000 -6.445126 4.742622 2.285413 6.383315 -3.184295 -1.969420 0.022054 -0.021428 -0.024741 -6.415831 -4.089925 1.165646 0.000000 0.000000 0.000000 0.000000 0.000000 0.000000 -0.128344 -1.866637 -17.872371 -0.733085 1.260324 -0.254710 -0.000000 0.000000 0.000000 0.000000 0.000000 0.000000 -0.522442 -1.340909 -18.261743 0.445744 -1.126607 0.255246 -0.639642 2.009020 -0.122039 0.000000 0.000000 0.000000
-32.413208 64.721324 228.113966 0.307252 0.611158 18.445147 -0.484851 -0.482534 -18.448827 -0.119056 0.856921 -0.011889 -0.904909 0.019416 0.241345 0.000000 0.000000 0.000000 3.797403 8.197934 -0.037608 -2.423021 -5.925774 -0.272928 -0.660347 -0.688013 -0.204213 -0.015113 -1.396453 0.071397 0.000000 0.000000 0.000000 0.000000 0.000000 0.000000 -6.899663 5.745559 3.223856 7.267636 -6.465648 -3.007458 -0.012310 0.003264 -0.046076 -6.526769 -2.702520 1.597615 0.000000 0.000000 0.000000 0.000000 0.000000 0.000000 -0.223673 -1.954478 -18.170532 -0.707313 1.317040 -0.264611 -0.000000 0.000000 0.000000 0.000000 0.000000 0.000000 -0.654382 -1.488986 -18.574947 0.905070 -1.260825 0.236884 -1.732597 4.063676 0.861613 0.000000 0.000000 0.000000
-32.389330 64.706164 228.123693 0.328017 0.653342 18.708941 -0.358182 0.373620 -18.715846 -0.020210 0.154188 -0.013150 -1.127183 0.290817 0.341061 0.000000 0.000000 0.000000 3.514225 8.439057 -0.261808 -2.136592 -5.748841 -0.085194 -0.626763 0.314550 -0.303651 0.923943 -2.659351 0.182694 0.000000 0.000000 0.000000 0.000000 0.000000 0.000000 -7.156130 7.234239 4.142745 7.776313 -9.666436 -3.944768 -0.046530 0.025749 -0.066568 -6.952976 -1.384260 2.083683 0.000000 0.000000 0.000000 0.000000 0.000000 0.000000 -0.255859 -1.977695 -18.436677 -0.714008 1.305283 -0.262583 -0.000000 0.000000 0.000000 0.000000 0.000000 0.000000 -0.738318 -1.631021 -18.850632 1.147177 -1.253228 0.229124 -2.993392 6.833908 2.181491 0.000000 0.000000 0.000000
-32.387722 64.698419 228.131868 0.320826 0.711617 19.004568 -0.348365 0.492450 -19.013054 -0.036809 0.208292 -0.017371 -1.350223 0.539772 0.446902 0.000000 0.000000 0.000000 3.313916 8.475932 -0.416511 -1.943702 -5.829598 0.068973 -0.159476 0.179031 -0.204497 -1.636640 -6.214174 0.291245 0.000000 0.000000 0.000000 0.000000 0.000000 0.000000 -7.134292 8.600136 5.011422 7.949391 -12.856872 -4.842733 -0.080637 0.046259 -0.086733 -7.456682 -0.009537 2.591364 0.000000 0.000000 0.000000 0.000000 0.000000 0.000000 -0.218088 -2.025918 -18.734701 -0.768504 1.278468 -0.258762 -0.000000 0.000000 0.000000 0.000000 0.000000 0.000000 -0.780720 -1.837713 -19.167384 1.220047 -1.101642 0.233129 -2.335969 4.787639 1.318132 0.000000 0.000000 0.000000
-32.405590 64.700225 228.135934 0.281993 0.794719 19.301878 -0.324111 0.608779 -19.312468 -0.043217 0.242282 -0.021556 -1.496964 0.790168 0.549058 0.000000 0.000000 0.000000 3.007248 7.951478 -0.501749 -1.713444 -5.984359 0.222778 0.313575 -1.301029 0.054340 -5.969930 -8.625875 0.231067 0.000000 0.000000 0.000000 0.000000 0.000000 0.000000 -6.959544 9.447178 5.588589 8.292223 -17.168842 -5.660186 0.005123 -1.093832 -0.122967 -2.876374 4.045421 2.897687 0.000000 0.000000 0.000000 0.000000 0.000000 0.000000 -0.123806 -2.097951 -19.036316 -0.853089 1.230115 -0.251654 -0.000000 0.000000 0.000000 0.000000 0.000000 0.000000 -0.775726 -2.096665 -19.492188 1.094254 -0.868283 0.256166 -2.301607 4.744447 1.396807 0.000000 0.000000 0.000000
-32.430606 64.705104 228.138084 0.230672 0.882975 19.606351 -0.300389 0.709782 -19.619229 -0.047130 0.252627 -0.025785 -1.597493 1.055009 0.646262 0.000000 0.000000 0.000000 2.929890 8.143239 -0.636959 -1.702437 -6.060547 0.295932 0.212101 -2.761613 0.202638 -4.192086 -6.271301 0.215168 0.000000 0.000000 0.000000 0.000000 0.000000 0.000000 -7.049406 9.938489 5.966866 8.259003 -17.718681 -5.917080 0.297682 -1.272942 -0.426733 -2.045201 3.890622 3.051869 0.000000 0.000000 0.000000 0.000000 0.000000 0.000000 -0.027713 -2.185794 -19.343425 -0.932734 1.189570 -0.245934 -0.000000 0.000000 0.000000 0.000000 0.000000 0.000000 -0.717678 -2.364219 -19.829263 0.936680 -0.635514 0.283837 -2.287542 4.681585 1.513881 0.000000 0.000000 0.000000
-32.439806 64.708660 228.133840 0.182238 0.982987 19.905668 -0.278438 0.797930 -19.920649 -0.045830 0.257279 -0.029334 -1.595470 1.349203 0.736901 0.000000 0.000000 0.000000 2.605494 8.302713 -0.875796 -1.351374 -6.140148 0.546866 0.102254 -4.543495 0.368280 -3.787398 -1.471384 0.185870 0.000000 0.000000 0.000000 0.000000 0.000000 0.000000 -7.301491 9.833004 6.013683 7.836075 -14.329595 -5.534802 0.148052 0.258092 -0.341971 -8.664832 -0.832197 2.760226 0.000000 0.000000 0.000000 0.000000 0.000000 0.000000 0.048661 -2.326775 -19.636780 -1.014772 1.192839 -0.248258 -0.000000 0.000000 0.000000 0.000000 0.000000 0.000000 -0.697734 -2.629339 -20.155875 0.733095 -0.343236 0.308792 -2.201861 4.552517 1.649536 0.000000 0.000000 0.000000
-32.437621 64.710424 228.129991 0.143865 1.085768 20.148072 -0.264797 0.862516 -20.164839 -0.039346 0.250140 -0.031831 -1.468374 1.415214 0.768714 0.000000 0.000000 0.000000 2.096147 8.387970 -1.174218 -0.756008 -6.187790 0.917952 -0.052221 -6.312851 0.512970 -3.772901 0.801910 0.168549 0.000000 0.000000 0.000000 0.000000 0.000000 0.000000 -7.650247 9.293565 5.799049 6.009585 -4.034920 -3.924375 -0.821895 4.760463 0.558582 -44.941006 -9.702998 -6.785118 0.000000 0.000000 0.000000 0.000000 0.000000 0.000000 0.092620 -2.493867 -19.867740 -1.083997 1.228730 -0.256194 -0.238936 0.291927 0.783795 0.000000 0.000000 0.000000 -0.709841 -2.850796 -20.416586 0.565210 -0.106739 0.327660 -2.110365 4.447965 1.759062 0.000000 0.000000 0.000000
-32.412684 64.717291 228.116897 0.123487 1.188248 20.436429 -0.236968 0.915593 -20.453835 -0.020552 0.242404 -0.031697 -1.340485 1.598878 0.811067 0.000000 0.000000 0.000000 1.404330 8.427731 -1.531176 -0.006059 -6.278821 1.379261 -0.253248 -7.700794 0.603588 -2.943940 6.155161 0.040429 0.000000 0.000000 0.000000 0.000000 0.000000 0.000000 -8.071960 9.061442 5.748734 -2.144340 23.767117 2.806187 -2.295395 10.689750 2.544905 -90.619931 19.238438 -34.530642 0.000000 0.000000 0.000000 0.000000 0.000000 0.000000 0.056018 -2.668818 -20.141901 -1.101381 1.298533 -0.269141 -0.266652 0.311912 0.889512 0.000000 0.000000 0.000000 -0.797538 -3.033683 -20.713209 0.478855 0.008707 0.344066 -2.611263 7.643639 1.073196 0.000000 0.000000 0.000000
-32.368039 64.725714 228.075932 0.125236 1.309993 20.691049 -0.219312 0.924355 -20.708403 -0.004358 0.228274 -0.030472 -1.142337 1.888762 0.855329 0.000000 0.000000 0.000000 0.741396 8.479856 -1.863369 0.777654 -6.383917 1.845048 -0.026865 -8.741321 0.759599 -5.512631 -0.258433 0.296186 0.000000 0.000000 0.000000 0.000000 0.000000 0.000000 -8.216468 8.689371 5.586845 -69.544284 64.863764 67.622904 4.109014 -8.750394 0.422355 -66.187888 36.235802 -70.848815 0.000000 0.000000 0.000000 0.000000 0.000000 0.000000 -0.063249 -2.860206 -20.381541 -1.069385 1.393708 -0.285686 -0.292187 0.329374 0.987830 0.000000 0.000000 0.000000 -0.951972 -3.223149 -20.972661 0.462857 0.181445 0.344214 -2.164064 5.722126 1.378170 0.000000 0.000000 0.000000
